<?xml version="1.0" standalone="no"?>
<!DOCTYPE svg PUBLIC "-//W3C//DTD SVG 20010904//EN"
 "http://www.w3.org/TR/2001/REC-SVG-20010904/DTD/svg10.dtd">
<svg version="1.0" xmlns="http://www.w3.org/2000/svg"
 width="512.000000pt" height="512.000000pt" viewBox="0 0 512.000000 512.000000"
 preserveAspectRatio="xMidYMid meet">
<metadata>
Created by potrace 1.11, written by Peter Selinger 2001-2013
</metadata>
<g transform="translate(0.000000,512.000000) scale(0.100000,-0.100000)"
fill="#000000" stroke="none">
<path d="M0 2560 l0 -2560 2560 0 2560 0 0 2560 0 2560 -2560 0 -2560 0 0
-2560z m3030 1756 c186 -4 380 -40 533 -98 51 -20 20 -19 -54 1 -238 65 -479
90 -696 73 -81 -6 -186 -19 -233 -28 -97 -19 -317 -82 -404 -116 -95 -38 -85
-48 51 -50 l118 -2 -117 -3 c-124 -4 -155 -15 -123 -46 14 -15 14 -17 -5 -27
-18 -10 -20 -8 -21 22 -2 33 -2 33 -6 4 -5 -34 -21 -52 -57 -66 -17 -6 -26
-17 -27 -32 0 -13 -3 -17 -6 -9 -3 7 -13 21 -22 31 -9 9 -21 25 -27 35 -10 18
-15 17 -83 -24 -180 -106 -453 -349 -578 -512 -69 -90 -158 -252 -292 -532
-22 -47 -39 -31 -17 15 80 175 135 312 130 320 -4 6 -2 8 4 4 6 -4 29 27 57
78 110 202 382 475 633 636 31 20 52 41 52 51 0 10 10 24 23 31 19 11 3 14
-118 18 l-140 6 153 2 c127 2 154 5 159 17 3 9 18 22 34 30 24 13 28 22 32 62
l3 48 2 -52 c1 -29 5 -53 10 -53 4 0 30 9 59 20 34 13 53 16 55 8 2 -6 13 -8
25 -4 14 4 20 12 16 22 -3 9 1 14 12 14 9 0 13 -4 10 -10 -9 -14 -3 -13 69 14
36 14 114 37 173 51 63 16 112 33 117 42 6 12 20 14 60 10 28 -3 83 -3 121 1
39 4 90 6 115 5 25 -2 115 -5 200 -7z m630 -136 c8 -5 11 -10 5 -10 -5 0 -17
5 -25 10 -8 5 -10 10 -5 10 6 0 17 -5 25 -10z m106 -25 c4 -8 17 -15 31 -15
33 0 83 -27 83 -45 0 -8 5 -15 12 -15 6 0 9 -3 5 -6 -3 -3 -20 1 -39 9 -18 9
-55 25 -83 37 -27 12 -44 24 -37 27 6 3 10 9 6 14 -3 5 0 9 6 9 6 0 13 -7 16
-15z m104 -169 c0 -8 9 -18 20 -21 11 -3 20 -11 20 -16 0 -12 -6 -11 -40 6
-31 16 -41 45 -15 45 8 0 15 -6 15 -14z m240 -12 c0 -2 -7 -4 -15 -4 -8 0 -15
4 -15 10 0 5 7 7 15 4 8 -4 15 -8 15 -10z m4 -116 c-4 -24 -8 -45 -10 -47 -7
-8 -12 4 -19 47 -6 38 -5 42 14 42 19 0 21 -4 15 -42z m-2589 -47 c-3 -6 -11
-11 -17 -11 -6 0 -6 6 2 15 14 17 26 13 15 -4z m2655 -22 c0 -52 -24 -48 -28
4 -2 28 1 37 12 37 12 0 16 -11 16 -41z m147 20 l22 -22 -26 -31 c-14 -17 -84
-96 -155 -174 l-131 -144 -25 26 -26 26 25 27 c14 16 83 92 153 171 70 78 130
142 134 142 3 0 16 -10 29 -21z m-3018 -220 c-19 -12 -24 -2 -8 17 9 11 14 13
17 4 3 -7 -2 -16 -9 -21z m1641 -224 l0 -95 255 0 255 0 0 -210 0 -209 -483
-3 -483 -3 -37 -25 c-81 -56 -102 -168 -44 -243 48 -63 68 -67 329 -67 250 0
337 -9 435 -41 177 -58 330 -223 378 -405 38 -148 8 -334 -75 -461 -104 -157
-311 -273 -489 -273 l-41 0 0 -105 0 -105 -200 0 -200 0 0 105 0 105 -280 0
-280 0 2 208 3 207 520 5 c385 4 526 8 541 17 35 20 73 71 84 114 20 74 -19
152 -93 188 -40 20 -60 21 -298 21 -295 0 -352 9 -478 71 -344 170 -429 626
-169 904 98 105 222 174 343 190 28 3 62 9 78 11 l27 6 0 94 0 94 200 0 200 0
0 -95z m-2050 -502 c-11 -17 -11 -17 -6 0 3 10 6 24 7 30 0 9 2 9 5 0 3 -7 0
-20 -6 -30z m66 -230 c-10 -10 -19 5 -10 18 6 11 8 11 12 0 2 -7 1 -15 -2 -18z
m-32 -415 c9 -36 7 -48 -8 -48 -21 0 -28 15 -20 45 8 31 20 32 28 3z m3 -425
c-3 -10 -5 -4 -5 12 0 17 2 24 5 18 2 -7 2 -21 0 -30z m-20 -85 c-3 -8 -6 -5
-6 6 -1 11 2 17 5 13 3 -3 4 -12 1 -19z m-17 -33 c0 -8 -7 -15 -15 -15 -8 0
-15 7 -15 15 0 8 7 15 15 15 8 0 15 -7 15 -15z m107 -7 c-3 -8 -6 -5 -6 6 -1
11 2 17 5 13 3 -3 4 -12 1 -19z m-70 -50 c-3 -8 -6 -5 -6 6 -1 11 2 17 5 13 3
-3 4 -12 1 -19z m195 -236 c-14 -4 -16 -42 -2 -42 6 0 10 -7 10 -15 0 -8 9
-15 20 -15 13 0 20 -7 20 -20 0 -22 -3 -23 -37 -14 -14 4 -23 14 -23 25 0 12
-7 19 -20 19 -16 0 -20 7 -20 30 0 23 4 30 20 30 11 0 20 5 20 11 0 5 5 7 12
3 9 -6 9 -9 0 -12z m-52 -164 c-1 -51 -1 -52 -15 -28 -19 34 -19 80 0 80 11 0
15 -12 15 -52z m100 -58 c0 -13 -7 -20 -20 -20 -19 0 -27 20 -13 33 13 14 33
6 33 -13z m94 -36 c11 -28 6 -54 -9 -54 -10 0 -15 11 -15 35 0 36 13 47 24 19z
m-134 -34 c0 -5 -2 -10 -4 -10 -3 0 -8 5 -11 10 -3 6 -1 10 4 10 6 0 11 -4 11
-10z m180 -90 c0 -20 -5 -30 -15 -30 -8 0 -15 -9 -15 -20 0 -11 7 -20 15 -20
11 0 15 -12 15 -52 -1 -49 -2 -51 -15 -34 -8 11 -15 34 -15 52 0 23 -5 33 -20
37 -15 4 -20 14 -20 36 0 24 4 31 20 31 11 0 20 7 20 15 0 8 7 15 15 15 10 0
15 -10 15 -30z m2888 -143 l163 -163 -25 -23 -25 -24 -28 24 c-16 13 -90 87
-165 165 l-137 140 22 22 c12 12 24 22 27 22 3 0 78 -73 168 -163z m-2718 -97
c0 -28 -2 -30 -39 -30 -22 0 -44 6 -51 15 -11 13 -7 15 24 15 25 0 36 4 36 15
0 8 7 15 15 15 10 0 15 -10 15 -30z m311 -162 c-1 -5 -1 -17 -1 -28 0 -11 -7
-20 -15 -20 -8 0 -15 -7 -15 -15 0 -8 -7 -15 -15 -15 -12 0 -15 14 -15 66 l0
67 31 -24 c17 -13 30 -27 30 -31z m2203 -33 c-4 -8 -16 -15 -28 -15 -21 1 -21
1 -2 15 25 19 37 19 30 0z m-2104 -36 c0 -18 -18 -9 -23 12 -4 16 -3 18 9 8 8
-6 14 -15 14 -20z m-240 5 c0 -14 -3 -14 -15 -4 -8 7 -15 14 -15 16 0 2 7 4
15 4 8 0 15 -7 15 -16z m280 -39 c0 -11 9 -14 33 -13 l32 3 3 -52 c2 -38 7
-53 18 -53 7 0 14 -9 14 -20 0 -22 -3 -23 -37 -14 -20 6 -23 13 -23 55 l0 49
-35 0 c-32 0 -35 2 -35 30 0 20 5 30 15 30 8 0 15 -7 15 -15z m-140 -40 c0
-29 -3 -30 -35 -9 -33 22 -31 34 5 34 25 0 30 -4 30 -25z m2140 10 c0 -8 -7
-15 -15 -15 -8 0 -15 -6 -15 -14 0 -8 -5 -18 -11 -22 -18 -10 -31 11 -23 40 5
21 12 26 35 26 19 0 29 -5 29 -15z m-1805 -47 c56 -27 63 -62 15 -73 -26 -6
-30 -11 -30 -41 0 -27 -4 -34 -20 -34 -18 0 -20 7 -20 85 0 47 2 85 5 85 2 0
25 -10 50 -22z m1455 -83 c0 -16 -6 -25 -15 -25 -16 0 -19 9 -9 34 9 25 24 19
24 -9z m-1272 -63 c3 -75 -1 -82 -42 -66 -17 7 -22 34 -6 34 6 0 10 11 10 24
0 43 13 87 24 83 6 -2 12 -34 14 -75z m1139 14 c-4 -9 -11 -16 -17 -16 -11 0
-14 33 -3 44 11 10 26 -11 20 -28z m-727 -46 c0 -20 -5 -30 -15 -30 -8 0 -15
7 -15 15 0 8 -7 15 -15 15 -8 0 -15 7 -15 15 0 10 10 15 30 15 27 0 30 -3 30
-30z m620 0 c0 -19 -5 -30 -14 -30 -9 0 -16 -12 -18 -32 -2 -17 -8 -33 -15
-35 -14 -5 -19 27 -14 85 3 39 5 42 32 42 26 0 29 -4 29 -30z m240 15 c0 -8
-4 -15 -10 -15 -5 0 -10 7 -10 15 0 8 5 15 10 15 6 0 10 -7 10 -15z m-1000
-36 c0 -24 -23 -21 -28 4 -2 10 3 17 12 17 10 0 16 -9 16 -21z m590 6 c0 -8
-7 -15 -15 -15 -8 0 -15 7 -15 15 0 8 7 15 15 15 8 0 15 -7 15 -15z m-450 -70
c0 -8 -7 -15 -15 -15 -8 0 -15 -4 -15 -10 0 -5 -7 -10 -15 -10 -9 0 -15 9 -15
25 0 21 5 25 30 25 20 0 30 -5 30 -15z m480 0 c0 -8 -4 -15 -10 -15 -5 0 -10
7 -10 15 0 8 5 15 10 15 6 0 10 -7 10 -15z"/>
</g>
</svg>
